<?xml version="1.0" standalone="no"?>
<!DOCTYPE svg PUBLIC "-//W3C//DTD SVG 20010904//EN"
 "http://www.w3.org/TR/2001/REC-SVG-20010904/DTD/svg10.dtd">
<svg version="1.0" xmlns="http://www.w3.org/2000/svg"
 width="795.000000pt" height="371.000000pt" viewBox="0 0 795.000000 371.000000"
 preserveAspectRatio="xMidYMid meet">

<g transform="translate(0.000000,371.000000) scale(0.100000,-0.100000)"
fill="#000000" stroke="none">
<path d="M0 1855 l0 -1855 3975 0 3975 0 0 1855 0 1855 -3975 0 -3975 0 0
-1855z m3870 293 c-1 -7 -154 -204 -340 -438 -187 -233 -340 -427 -340 -430 0
-3 142 -183 316 -400 174 -217 330 -412 346 -432 l30 -38 -194 0 -193 1 -254
319 c-140 176 -257 320 -259 320 -2 0 -32 -25 -65 -56 -34 -30 -91 -70 -127
-87 -60 -30 -72 -32 -170 -32 -98 0 -109 2 -172 33 -90 44 -161 114 -200 199
-41 87 -50 210 -23 294 36 113 114 203 220 255 56 27 68 29 175 29 106 0 119
-2 173 -29 32 -15 88 -55 123 -89 37 -34 68 -56 73 -51 4 5 117 146 251 314
133 168 250 311 258 318 11 8 66 12 194 12 136 0 178 -3 178 -12z m604 3 c3
-5 -147 -200 -334 -434 -187 -233 -340 -430 -340 -436 0 -6 153 -202 340 -436
187 -235 340 -428 340 -431 0 -2 -85 -4 -189 -4 l-189 0 -346 433 c-190 237
-344 437 -342 444 6 13 634 802 674 846 l26 27 177 0 c98 0 180 -4 183 -9z
m327 -402 c105 -131 192 -239 195 -239 2 0 34 27 70 61 93 87 155 113 274 117
78 3 105 0 151 -17 84 -32 147 -78 195 -143 60 -81 79 -143 79 -253 0 -81 -4
-97 -34 -163 -69 -148 -215 -242 -376 -242 -111 0 -200 38 -290 122 -35 32
-65 58 -69 58 -3 0 -94 -110 -201 -245 -107 -135 -197 -245 -199 -245 -2 0
-46 53 -96 117 -83 104 -91 118 -80 136 7 11 93 121 191 244 l179 223 -190
239 c-104 131 -190 242 -190 246 0 16 182 235 191 229 5 -3 95 -113 200 -245z"/>
<path d="M2564 1379 c-30 -15 -54 -61 -54 -104 0 -55 52 -105 110 -105 36 0
48 6 96 51 30 29 54 57 54 63 0 13 -51 63 -90 89 -27 19 -84 21 -116 6z"/>
<path d="M5260 1344 c-28 -26 -50 -54 -50 -63 0 -18 62 -82 97 -100 50 -26
122 -2 148 49 19 37 19 63 0 100 -21 41 -53 60 -103 60 -37 0 -49 -6 -92 -46z"/>
</g>
</svg>
